<svg xmlns="http://www.w3.org/2000/svg" width="152.319" height="148.206" viewBox="0 0 152.319 148.206"><path fill="#FFF" d="M146.188 32.046l-.019-.04h-1.638a7.689 7.689 0 0 1-4.88-1.755 7.675 7.675 0 0 1-2.802-5.931v-1.957h-.021c-.06-1.732-.766-3.307-1.915-4.437a6.484 6.484 0 0 0-4.214-1.875v-.021h-.162c-.1-.02-.182-.039-.262-.039-.082 0-.181.02-.262.039h-.949c-4.254 0-7.703-3.469-7.703-7.703V6.392l-.021-.021C121.242 2.844 118.357 0 114.809 0c-.223 0-.424.062-.646.08H38.175c-.222-.018-.424-.08-.646-.08-3.549 0-6.432 2.844-6.535 6.371l-.039.021V8.33c0 2.643-1.352 5.002-3.389 6.394a7.67 7.67 0 0 1-4.295 1.31h-.947c-.102-.02-.182-.039-.263-.039-.101 0-.181.02-.261.039h-.162l-.02.021a6.57 6.57 0 0 0-4.215 1.875 6.612 6.612 0 0 0-1.917 4.437v.061c0 .042-.019.103-.019.142 0 .061.019.12.019.181v1.573c0 4.236-3.448 7.686-7.685 7.686h-1.63l-.041.04C2.722 32.246 0 35.069 0 38.539v71.107c0 .361.06.704.12 1.049.463 2.984 2.944 5.264 6.01 5.468l.041.037h1.632c4.236 0 7.685 3.448 7.685 7.706v1.569c0 .043-.019.104-.019.163 0 .061.019.102.019.162v.041a6.624 6.624 0 0 0 1.917 4.438 6.503 6.503 0 0 0 4.215 1.894l.02.02h.16c.08 0 .161.021.261.021.081 0 .161-.021.263-.021h.947c1.594 0 3.066.484 4.295 1.311 2.037 1.395 3.389 3.73 3.389 6.373v1.938l.039.02c.103 3.527 2.986 6.373 6.535 6.373.222 0 .423-.041.646-.061h75.987c.223.02.424.061.646.061 3.549 0 6.434-2.846 6.533-6.373l.021-.02v-1.938c0-4.234 3.449-7.684 7.703-7.684h.949c.081 0 .18.021.262.021.08 0 .162-.021.262-.021h.162v-.02c1.652-.102 3.124-.787 4.214-1.894 1.149-1.133 1.855-2.706 1.915-4.438h.021v-1.935a7.684 7.684 0 0 1 2.802-5.951 7.68 7.68 0 0 1 4.88-1.755h1.638l.019-.037a6.533 6.533 0 0 0 6.03-5.468c.061-.345.1-.688.1-1.049V38.539a6.5 6.5 0 0 0-6.131-6.493z"/></svg>