<svg xmlns="http://www.w3.org/2000/svg" width="86.718" height="56.351" viewBox="0 0 86.718 56.351"><path fill="#FFF" d="M8.121 16.329h33.466c5.282 0 9.575 4.292 9.575 9.567v1.895c-.002.081-.025.162-.025.247 0 2.264.925 4.311 2.416 5.786a8.105 8.105 0 0 0 5.445 2.364v.024h.227c.034 0 .065.011.099.011.033 0 .064-.011.099-.011h1.405c5.282 0 9.574 4.292 9.574 9.569v2.166h.004a8.157 8.157 0 0 0 16.313 0c0-4.321-3.373-7.823-7.623-8.099l-.043-.055h-.464l-.025-.001-.025.001h-1.51c-5.275 0-9.568-4.292-9.568-9.566v-1.963c.001-.065.019-.13.019-.197 0-.066-.018-.134-.019-.2v-.052l-.006-.001a8.132 8.132 0 0 0-2.385-5.532c-1.356-1.36-3.2-2.207-5.237-2.344l-.02-.021h-.196c-.111-.004-.213-.033-.323-.033-.109 0-.212.029-.323.033h-1.184c-5.275 0-9.568-4.294-9.568-9.571V7.937l-.033-.029C48.049 3.522 44.471 0 40.052 0c-.271 0-.528.053-.793.08H8.121C3.644.08 0 3.723 0 8.208c0 4.476 3.644 8.121 8.121 8.121z"/></svg>