<svg xmlns="http://www.w3.org/2000/svg" width="75.243" height="147.503" viewBox="0 0 75.243 147.503"><path fill="#FFF" d="M.238 9.178c0 2.49.976 4.746 2.562 6.386 1.579 1.648 3.77 2.67 6.188 2.67.088 0 .177-.027.266-.031h2.024c5.639 0 10.233 4.75 10.233 10.59v35.235c0 5.845-4.595 10.59-10.233 10.59H9.46c-.147-.004-.294-.046-.445-.046a8.45 8.45 0 0 0-3.423.729 8.735 8.735 0 0 0-2.791 1.962 9.144 9.144 0 0 0-2.562 6.385c0 .303.056.587.083.878v30.123c-.028.292-.083.574-.083.878 0 4.885 3.768 8.841 8.455 8.993l.03.039h2.578c5.638 0 10.23 4.745 10.23 10.58v1.313c0 .123-.034.237-.034.358 0 .114.034.233.034.351v.223l.028.019c.141 2.254 1.052 4.291 2.504 5.795 1.579 1.647 3.769 2.666 6.185 2.666 4.82 0 8.721-4.044 8.721-9.022a9.142 9.142 0 0 0-2.559-6.386c-1.579-1.647-3.769-2.67-6.192-2.67-.092 0-.173.023-.263.027h-2.02c-5.646 0-10.238-4.75-10.238-10.589v-33.5c0-.038.016-.073.016-.107 0-.123-.038-.237-.038-.358v-1.313c0-5.831 4.588-10.58 10.236-10.58h1.543c.25.023.487.076.744.076 2.995 0 5.643-1.572 7.207-3.968a9.193 9.193 0 0 0 1.563-5.142c0-.298-.059-.588-.088-.878V31.373c.03-.299.088-.582.088-.878a9.185 9.185 0 0 0-1.563-5.142c-1.563-2.396-4.211-3.968-7.207-3.968-.257 0-.494.055-.744.078h-1.543c-5.648 0-10.236-4.75-10.236-10.586v-1.31c0-.123.038-.236.038-.358 0-.118-.038-.236-.038-.354v-.221l-.029-.02c-.141-2.256-1.047-4.293-2.504-5.791-1.582-1.648-3.77-2.67-6.184-2.67C4.143.153.238 4.195.238 9.178z"/></svg>