<svg xmlns="http://www.w3.org/2000/svg" width="52.005" height="103.136" viewBox="0 0 52.005 103.136"><path fill="#FFF" d="M42.885 103.136v-4.918h.006v-.894a5.355 5.355 0 0 0-5.349-5.35h-.546c-.1.005-.194.031-.296.031a4.547 4.547 0 0 1-4.542-4.543V75c0-.109.024-.213.033-.319v-.902c0-2.95-2.398-5.35-5.348-5.35h-.545c-.101.007-.196.029-.297.029a4.546 4.546 0 0 1-4.542-4.542V51.452c0-.019.005-.036.005-.057v-1.139a5.355 5.355 0 0 0-5.348-5.351h-.241c-.198.026-.395.062-.601.062a4.547 4.547 0 0 1-4.542-4.543V26.868a5.355 5.355 0 0 0-5.348-5.351h-.545c-.101.007-.195.031-.297.031A4.547 4.547 0 0 1 0 17.004V4.543A4.547 4.547 0 0 1 4.542 0a4.547 4.547 0 0 1 4.542 4.543v9.577h.003v4.053a5.36 5.36 0 0 0 5.354 5.35h.741l.002.001c.031 0 .06-.008.091-.008a4.547 4.547 0 0 1 4.542 4.543v9.45h.003v4.053a5.358 5.358 0 0 0 5.354 5.349h.741l.007.009c.026 0 .053-.009.08-.009a4.549 4.549 0 0 1 4.542 4.543v9.578h.002v4.052a5.358 5.358 0 0 0 5.354 5.35h.742l.021.027c.014-.001.025-.004.039-.004a4.547 4.547 0 0 1 4.542 4.544v9.577h.002v4.053A5.359 5.359 0 0 0 46.6 93.98h.742l.02.024c.029 0 .055-.009.085-.009 2.403 0 4.352 1.866 4.526 4.224h.034v4.918h-9.122z"/></svg>