<svg xmlns="http://www.w3.org/2000/svg" width="76.508" height="75.142" viewBox="0 0 76.508 75.142"><path fill="#FFF" d="M.078 7.931v20.857c-.027.259-.078.508-.078.774 0 4.314 3.441 7.812 7.724 7.941l.027.033h2.353c5.154 0 9.346 4.192 9.346 9.347v1.156c-.003.107-.031.205-.031.314 0 .107.027.209.031.314v.194l.021.016c.134 1.99.963 3.793 2.291 5.118a7.944 7.944 0 0 0 5.405 2.328l.002.004h.052c.062.002.126.021.192.021s.128-.019.194-.021h1.917c5.152 0 9.345 4.193 9.345 9.349v1.475l-.001.021v.035l.001.023v.422l.046.037c.252 4.145 3.678 7.451 7.886 7.451h21.773c4.374 0 7.935-3.561 7.935-7.934 0-4.381-3.561-7.938-7.935-7.938H47.461c-.211-.018-.416-.062-.629-.062V59.2h-2.118c-5.153 0-9.345-4.193-9.345-9.352v-1.37c0-.035.008-.063.008-.098s-.008-.064-.008-.098v-.221h-.023a7.938 7.938 0 0 0-2.307-5.32 7.944 7.944 0 0 0-5.653-2.357c-.083 0-.161.022-.242.024h-1.85c-5.151 0-9.344-4.192-9.344-9.352V7.931C15.949 3.559 12.389 0 8.015 0 3.637 0 .078 3.559.078 7.931z"/></svg>