<svg xmlns="http://www.w3.org/2000/svg" width="114.446" height="149.783" viewBox="0 0 114.446 149.783"><path fill="#FFF" d="M9.852 129.874h-.676l-.057-.056v-2.192h-.057l-.897 2.192-.057.056h-.619l-.057-.056-.897-2.192h-.056v2.192l-.057.056h-.674l-.056-.056v-3.821l.056-.057h.843l.057.057 1.123 2.753h.057l1.123-2.753.059-.057h.843l.056.057v3.821l-.057.056zm3.935 0h-2.642l-.055-.056v-3.821l.055-.057h2.642l.057.057v.56l-.057.06h-1.854l-.057.053v.789l.057.055h1.742l.057.058v.561l-.057.057h-1.742l-.057.058v.896l.057.058h1.854l.057.056v.563l-.057.053zm2.419 0H14.97l-.057-.056v-3.821l.057-.057h1.236c1.405 0 1.911.729 1.911 1.966 0 1.236-.506 1.968-1.911 1.968zm.056-3.258h-.503l-.058.053v2.473l.058.058h.503c.789 0 1.067-.394 1.067-1.293 0-.897-.278-1.291-1.067-1.291zm3.542 3.258h-.672l-.058-.056v-3.821l.058-.057h.672l.057.057v3.821l-.057.056zm4.271 0h-.504l-.057-.056-.281-.733-.112-.055h-1.403l-.112.055-.282.733-.055.056h-.508l-.057-.056v-.563l1.294-3.258.056-.057h.732l.053.057 1.293 3.258v.563l-.057.056zm-1.628-2.923h-.056l-.508 1.35.057.056h.955l.057-.056-.505-1.35zm-14.225 7.03l.057-.056h.671l.059.056c-.113.785-.73 1.235-1.63 1.235-1.235 0-1.911-.841-1.911-2.023 0-1.179.676-2.022 1.911-2.022.899 0 1.517.451 1.63 1.18l-.059.057h-.672l-.057-.057c-.113-.336-.395-.504-.843-.504-.788 0-1.124.561-1.124 1.347 0 .788.336 1.351 1.124 1.351.449-.001.73-.169.844-.564zm4.889-.336c0 1.011-.56 1.572-1.571 1.572-1.014 0-1.573-.562-1.573-1.572v-2.358l.056-.058h.674l.055.058v2.358c0 .562.227.899.789.899.561 0 .787-.338.787-.899v-2.358l.055-.058h.674l.056.058v2.358zm3.768 1.518h-2.526l-.056-.058v-3.819l.056-.058h.674l.055.058v3.143l.057.057h1.741l.06.059v.562l-.061.056zm3.711-3.261h-1.122l-.059.056v3.147l-.055.058h-.674l-.057-.058v-3.147l-.057-.056h-1.123l-.057-.056v-.561l.057-.058h3.146l.06.058v.561l-.059.056zm4.048 1.743c0 1.011-.561 1.572-1.571 1.572-1.013 0-1.573-.562-1.573-1.572v-2.358l.057-.058h.672l.057.058v2.358c0 .562.227.899.788.899s.786-.338.786-.899v-2.358l.057-.058h.673l.056.058v2.358zm3.598-.114v.056l.731.957v.562l-.055.058h-.339l-.112-.058-1.124-1.461-.109-.058h-.563l-.057.058v1.461l-.056.058h-.676l-.057-.058v-3.819l.057-.058h1.854c.787 0 1.35.394 1.35 1.179.001.618-.393 1.011-.844 1.123zm-.505-1.629h-1.066l-.057.056v.9l.057.057h1.066c.338 0 .564-.113.564-.508.001-.392-.226-.505-.564-.505zm5.004 3.261h-2.641l-.057-.058v-3.819l.057-.058h2.641l.057.058v.561l-.057.056H30.88l-.053.056v.786l.053.058h1.743l.057.057v.561l-.057.056H30.88l-.053.057v.897l.053.057h1.855l.057.059v.562l-.057.054zm-26.313 5.286h-.674l-.056-.057v-3.821l.056-.055h.674l.057.055v3.821l-.057.057zm1.295-3.932h.785l.113.055 1.518 2.586h.056v-2.586l.057-.055h.673l.058.055v3.821l-.058.057h-.785l-.113-.057-1.518-2.586h-.054v2.586l-.06.057h-.672l-.056-.057v-3.821l.056-.055zm9.221 3.932h-.508l-.057-.057-.281-.73-.112-.056h-1.405l-.111.056-.283.73-.056.057h-.505l-.056-.057v-.56l1.293-3.262.056-.055h.729l.058.055 1.291 3.262v.56l-.053.057zm-1.63-2.921h-.057l-.506 1.35.056.054h.954l.057-.054-.504-1.35zm3.933 2.977c-1.121 0-1.628-.561-1.628-1.293l.056-.055h.674l.059.055c0 .395.223.621.898.621.504 0 .785-.171.785-.508 0-.394-.225-.505-1.011-.617-.788-.111-1.405-.394-1.405-1.18 0-.562.451-1.068 1.519-1.068s1.515.507 1.515 1.181l-.053.058h-.677l-.056-.058c0-.336-.17-.505-.788-.505-.505 0-.674.169-.674.393 0 .335.226.449 1.013.561.787.113 1.403.451 1.403 1.236 0 .618-.448 1.179-1.63 1.179zm3.32-.056h-.674l-.056-.057v-3.821l.056-.055h.674l.056.055v3.821l-.056.057zm4.27 0h-.506l-.055-.057-.281-.73-.112-.056h-1.405l-.112.056-.282.73-.054.057h-.507l-.055-.057v-.56l1.291-3.262.057-.055h.73l.055.055 1.293 3.262v.56l-.057.057zm-1.63-2.921h-.056l-.505 1.35.057.054h.954l.057-.054-.507-1.35zm37.275-9.902h-.338l-.056-.056v-.45l.056-.057h.338l.055.057v.45l-.055.056zm0 2.248h-.338l-.056-.056v-.452l.056-.054h.338l.055.054v.452l-.055.056zm3.427-1.068l-.11-.056h-1.63l-.113.056-.394 1.013-.057.056h-.169l-.057-.056v-.169l1.408-3.652.054-.057h.281l.058.057 1.404 3.652v.169l-.057.056h-.169l-.056-.056-.393-1.013zm-1.684-.394l.054.058h1.408l.056-.058-.731-1.966h-.057l-.73 1.966zm.505 3.097h-1.236l-.057.056v3.541l-.057.058h-.225l-.057-.058v-3.541l-.054-.056h-1.237l-.059-.056v-.167l.059-.058h2.922l.056.058v.167l-.055.056zm2.249 1.855h-.954l-.057.055v1.687l-.057.058h-.225l-.057-.058v-3.819l.057-.058h1.631c.842 0 1.234.336 1.234 1.066 0 .898-.675 1.069-1.066 1.069v.055l.955 1.518v.169l-.057.058h-.113l-.111-.058-1.068-1.687-.112-.055zm.393-1.855h-1.348l-.057.056v1.462l.057.056h1.293c.56 0 .898-.167.898-.787.001-.617-.338-.787-.843-.787zm4.328 2.586l-.112-.057h-1.628l-.112.057-.395 1.011-.056.058h-.169l-.054-.058v-.169l1.402-3.65.057-.058h.281l.057.058 1.404 3.65v.169l-.057.058h-.168l-.057-.058-.393-1.011zm-1.683-.393l.056.055h1.405l.055-.055-.73-1.969h-.057l-.729 1.969zm6.24 1.461h-.283l-.111-.058-2.248-3.315h-.056v3.315l-.056.058h-.226l-.058-.058v-3.819l.058-.058h.281l.112.058 2.247 3.312h.056v-3.312l.057-.058h.227l.056.058v3.819l-.056.058zm2.475.054c-.902 0-1.461-.45-1.461-1.235l.055-.056h.226l.056.056c0 .617.393.955 1.181.955.673 0 1.011-.338 1.011-.786 0-.506-.338-.676-1.18-.901-.842-.223-1.236-.505-1.236-1.121 0-.395.225-.957 1.293-.957.731 0 1.349.282 1.349 1.124l-.058.056h-.225l-.057-.056c0-.562-.338-.842-1.01-.842-.786 0-.955.337-.955.675 0 .505.338.674 1.178.898.844.223 1.238.448 1.238 1.124-.001.504-.282 1.066-1.405 1.066zm5.394-.054h-.279l-.113-.058-2.246-3.315h-.06v3.315l-.054.058h-.226l-.056-.058v-3.819l.056-.058h.279l.115.058 2.248 3.312h.056v-3.312l.056-.058h.224l.056.058v3.819l-.056.058zm3.432-1.068l-.113-.057h-1.627l-.113.057-.395 1.011-.056.058h-.169l-.057-.058v-.169l1.405-3.65.057-.058h.281l.054.058 1.404 3.65v.169l-.055.058h-.17l-.053-.058-.393-1.011zm-1.688-.393l.057.055h1.404l.058-.055-.729-1.969h-.057l-.733 1.969zm5.85-2.193h-1.237l-.056.056v3.541l-.057.058h-.226l-.056-.058v-3.541l-.057-.056H88.79l-.057-.056v-.167l.057-.058h2.924l.053.058v.167l-.053.056zm1.182 3.654h-.226l-.057-.058v-3.819l.057-.058h.226l.053.058v3.819l-.053.058zm1.009-1.97c0-1.403.846-2.022 1.799-2.022.955 0 1.801.619 1.801 2.022 0 1.405-.846 2.023-1.801 2.023-.953.001-1.799-.617-1.799-2.023zm.338 0c0 1.183.617 1.743 1.461 1.743.843 0 1.463-.561 1.463-1.743 0-1.179-.62-1.74-1.463-1.74-.844 0-1.461.562-1.461 1.74zm7.254 1.97h-.282l-.112-.058-2.25-3.315H98.8v3.315l-.06.058h-.222l-.058-.058v-3.819l.058-.058h.282l.109.058 2.247 3.312h.059v-3.312l.054-.058h.229l.053.058v3.819l-.054.058zm3.429-1.068l-.112-.057h-1.631l-.112.057-.391 1.011-.06.058h-.166l-.057-.058v-.169l1.405-3.65.054-.058h.281l.057.058 1.404 3.65v.169l-.057.058h-.168l-.057-.058-.39-1.011zm-1.687-.393l.057.055h1.405l.054-.055-.729-1.969h-.057l-.73 1.969zm5.565 1.461h-2.305l-.055-.058v-3.819l.055-.058h.227l.055.058v3.537l.057.057h1.967l.059.057v.169l-.06.057zm-45.037 3.489h-1.291l-.055.056v1.685l-.058.057h-.226l-.056-.057v-3.821l.056-.055h1.629c.844 0 1.238.336 1.238 1.068.001.729-.394 1.067-1.237 1.067zm.058-1.856h-1.35l-.055.057v1.462l.055.057h1.291c.562 0 .9-.169.9-.786.001-.619-.337-.79-.841-.79zm4.385 3.653h-2.305l-.056-.057v-3.821l.056-.055h.227l.055.055v3.54l.057.058h1.967l.055.056v.168l-.056.056zm3.034-1.067l-.11-.057h-1.629l-.113.057-.395 1.011-.055.057h-.168l-.059-.057v-.168l1.408-3.653.053-.055h.282l.056.055 1.405 3.653v.168l-.057.057h-.169l-.057-.057-.392-1.011zm-1.684-.392l.057.055h1.405l.056-.055-.73-1.97h-.058l-.73 1.97zm5.845-2.194h-1.236l-.056.057v3.54l-.057.057h-.224l-.055-.057v-3.54l-.057-.057h-1.236l-.057-.054v-.171l.057-.055h2.92l.057.055v.171l-.056.054zm3.264 0H76.7l-.056.057v1.462l.056.057h1.855l.055.056v.17l-.055.056H76.7l-.056.056v1.685l-.058.057h-.225l-.053-.057v-3.821l.053-.055h2.307l.057.055v.171l-.056.051zm.787 1.686c0-1.404.843-2.022 1.797-2.022.957 0 1.8.618 1.8 2.022 0 1.406-.843 2.022-1.8 2.022-.954.001-1.797-.615-1.797-2.022zm.338 0c0 1.18.617 1.742 1.459 1.742s1.461-.562 1.461-1.742c0-1.178-.619-1.74-1.461-1.74s-1.459.563-1.459 1.74zm5.564.17h-.955l-.057.056v1.685l-.056.057h-.226l-.057-.057v-3.821l.057-.055h1.631c.842 0 1.236.336 1.236 1.068 0 .897-.676 1.067-1.068 1.067v.056l.955 1.517v.168l-.057.057h-.111l-.112-.057-1.066-1.685-.114-.056zm.394-1.856h-1.349l-.057.057v1.462l.057.057h1.293c.561 0 .898-.169.898-.786.001-.619-.337-.79-.842-.79zm6.071 3.653H91.6l-.061-.057v-3.257h-.055l-1.402 3.257-.06.057h-.279l-.056-.057-1.405-3.257h-.056v3.257l-.057.057h-.225l-.058-.057v-3.821l.058-.055h.394l.056.055 1.463 3.43h.055l1.459-3.43.057-.055h.395l.056.055v3.821l-.056.057z"/><g fill="#FFF"><path d="M27.535 8.299h-11.6a2.075 2.075 0 0 0-2.075 2.073c0 1.143.931 2.072 2.075 2.072h11.601c1.142 0 2.073-.93 2.073-2.072a2.077 2.077 0 0 0-2.074-2.073z"/><path d="M32.6 13.401l-.034-.044h-.518a2.444 2.444 0 0 1-2.442-2.44v-.615l-2.615-1.98-.03-.022h-.846v4.146h1.8a2.446 2.446 0 0 1 2.442 2.442v1.85h4.147v-.979L32.6 13.401z"/><path d="M32.431 13.357a2.073 2.073 0 0 0-2.072 2.074v37.802a2.074 2.074 0 0 0 4.145 0V15.432a2.075 2.075 0 0 0-2.073-2.075z"/><path d="M32.6 13.401l-.034-.044h-.518a2.443 2.443 0 0 1-2.442-2.44v-.615l-2.615-1.98-.03-.022h-.846v4.146h1.8a2.446 2.446 0 0 1 2.442 2.442v1.85h4.147v-.979L32.6 13.401zm19.309-5.102H38.606a2.073 2.073 0 0 0 0 4.145h13.303a2.073 2.073 0 0 0 0-4.145z"/><path d="M56.974 13.401l-.035-.044h-.52a2.442 2.442 0 0 1-2.439-2.44v-.615l-2.615-1.98-.031-.022h-.844v4.146h1.796a2.445 2.445 0 0 1 2.444 2.442v1.85h4.148v-.979l-1.904-2.358zM10.13 55.284V10.372a2.074 2.074 0 0 0-4.146 0v44.912h4.146z"/><path d="M58.878 55.284V15.432a2.074 2.074 0 0 0-4.145 0v39.853h4.145z"/></g><g fill="#FFF"><path d="M72.8 24.064c1.145 0 2.073.931 2.073 2.074v16.431a2.073 2.073 0 0 1-4.145 0v-16.43c0-1.144.93-2.075 2.072-2.075zm4.895-5.059H89.3a2.074 2.074 0 0 1 0 4.145H77.695a2.072 2.072 0 0 1 0-4.145z"/><path d="M72.634 24.108l.033-.044h.518a2.442 2.442 0 0 0 2.441-2.44v-.615l2.615-1.98.03-.023h.847v4.146h-1.801a2.447 2.447 0 0 0-2.444 2.443v1.85h-4.146v-.979l1.907-2.358z"/></g><g fill="#FFF"><path d="M72.8 50.246a2.076 2.076 0 0 0 2.073-2.075v-16.43a2.076 2.076 0 0 0-2.073-2.074 2.077 2.077 0 0 0-2.072 2.074v16.43c0 1.143.93 2.075 2.072 2.075zm4.895 5.06h10.768c1.142 0 2.073-.93 2.073-2.072a2.077 2.077 0 0 0-2.073-2.075H77.695a2.074 2.074 0 0 0 0 4.147z"/><path d="M72.634 50.2l.033.046h.518a2.443 2.443 0 0 1 2.441 2.44v.615l2.615 1.98.03.023h.847v-4.147h-1.801a2.446 2.446 0 0 1-2.444-2.441v-1.85h-4.146v.979l1.907 2.355z"/></g><g fill="#FFF"><path d="M92.278 19.005h-11.6c-1.144 0-2.073.93-2.073 2.072 0 1.145.93 2.073 2.073 2.073h11.601a2.073 2.073 0 0 0-.001-4.145z"/><path d="M97.343 24.108l-.036-.044h-.519a2.442 2.442 0 0 1-2.439-2.44v-.615l-2.615-1.98-.031-.023h-.844v4.146h1.799a2.444 2.444 0 0 1 2.441 2.443v1.85h4.148v-.979l-1.904-2.358z"/></g><g fill="#FFF"><path d="M97.175 33.897a2.074 2.074 0 0 1-2.073-2.072v-5.694c0-1.142.929-2.072 2.073-2.072 1.143 0 2.072.931 2.072 2.072v5.694c0 1.143-.93 2.072-2.072 2.072z"/><path d="M97.343 33.855l-.036.04h-.519a2.444 2.444 0 0 0-2.439 2.442v.615l-2.615 1.981-.031.023h-.844V34.81h1.799a2.444 2.444 0 0 0 2.441-2.441v-1.848h4.148v.976l-1.904 2.358z"/></g><path fill="#FFF" d="M94.304 51.158H77.695a2.073 2.073 0 0 0 0 4.147h16.608v-4.147zM92.278 34.81H78.595v4.148h13.684c1.141 0 2.07-.932 2.07-2.076 0-1.14-.93-2.072-2.071-2.072z"/><g fill="#FFF"><path d="M8.057 72.196c1.142 0 2.073.93 2.073 2.074v25.182c0 1.145-.932 2.074-2.073 2.074s-2.073-.93-2.073-2.074V74.271a2.076 2.076 0 0 1 2.073-2.075z"/><path d="M7.892 72.239l.032-.043h.518a2.444 2.444 0 0 0 2.442-2.439v-.615l2.615-1.981.029-.022h.848v4.146h-1.801a2.443 2.443 0 0 0-2.442 2.439v1.85h-4.15v-.979l1.909-2.356zm.165 36.842a2.074 2.074 0 0 0 2.073-2.071V81.827c0-1.146-.932-2.074-2.073-2.074s-2.073.929-2.073 2.074v25.183a2.073 2.073 0 0 0 2.073 2.071z"/><path d="M7.892 109.039l.032.042h.518a2.446 2.446 0 0 1 2.442 2.444v.615l2.615 1.978.029.025h.848v-4.146h-1.801a2.445 2.445 0 0 1-2.442-2.442v-1.85h-4.15v.978l1.909 2.356z"/><path d="M58.829 109.998H12.956a2.073 2.073 0 0 0 0 4.145h45.873v-4.145zm0-42.86H12.956c-1.145 0-2.072.93-2.072 2.074 0 1.139.928 2.07 2.072 2.07h45.873v-4.144z"/></g><g fill="#FFF"><path d="M72.724 74.952a2.075 2.075 0 0 0-2.073 2.072v11.27c0 1.144.929 2.074 2.073 2.074a2.075 2.075 0 0 0 2.072-2.074v-11.27c0-1.141-.93-2.072-2.072-2.072z"/><path d="M72.724 72.183c1.143 0 2.072.932 2.072 2.075v7.937c0 1.141-.93 2.071-2.072 2.071a2.074 2.074 0 0 1-2.073-2.071v-7.937a2.075 2.075 0 0 1 2.073-2.075zm4.895-5.061h8.126a2.073 2.073 0 0 1 0 4.146h-8.126a2.073 2.073 0 0 1 0-4.146z"/><path d="M72.556 72.227l.034-.043h.518a2.444 2.444 0 0 0 2.44-2.442v-.614l2.617-1.981.029-.023h.846v4.146h-1.801a2.442 2.442 0 0 0-2.44 2.442v1.85H70.65v-.978l1.906-2.357zm.154 15.204h1.447v-1.216h-.846l-.033.023-2.612 1.981v.614a2.447 2.447 0 0 1-2.442 2.444h-.518l-.034.042-1.904 2.355v.978h4.146v-1.85a2.445 2.445 0 0 1 2.444-2.442h.353v-2.929zm18.772-12.479c1.145 0 2.073.931 2.073 2.072v11.27a2.075 2.075 0 0 1-2.073 2.074 2.076 2.076 0 0 1-2.073-2.074v-11.27c0-1.141.93-2.072 2.073-2.072z"/><path d="M91.482 72.183a2.076 2.076 0 0 0-2.073 2.075v7.937c0 1.141.93 2.071 2.073 2.071a2.074 2.074 0 0 0 2.073-2.071v-7.937a2.075 2.075 0 0 0-2.073-2.075zm-4.898-5.061h-8.123a2.074 2.074 0 0 0 0 4.146h8.123a2.074 2.074 0 0 0 0-4.146z"/><path d="M91.649 72.227l-.034-.043h-.52a2.444 2.444 0 0 1-2.438-2.442v-.614l-2.615-1.981-.031-.023h-.844v4.146h1.799a2.444 2.444 0 0 1 2.44 2.442v1.85h4.149v-.978l-1.906-2.357zm-.154 15.204H90.05v-1.216h.844l.031.023 2.615 1.981v.614a2.446 2.446 0 0 0 2.441 2.444h.517l.036.042 1.904 2.355v.978h-4.146v-1.85a2.445 2.445 0 0 0-2.444-2.442h-.354v-2.929z"/><path d="M74.755 99.267h14.58v4.145h-14.58zm-4.842 14.813V93.347a2.073 2.073 0 0 0-4.145 0v20.733h4.145zm28.525 0V93.347a2.072 2.072 0 0 0-4.145 0v20.733h4.145z"/></g></svg>