<svg xmlns="http://www.w3.org/2000/svg" width="50.773" height="49.402" viewBox="0 0 50.773 49.402"><path fill="#FFF" d="M48.535 27.736H48.5a.464.464 0 0 0-.219 0h-.293a2.533 2.533 0 0 1-1.627-.589 2.541 2.541 0 0 1-.93-1.968v-.426a.864.864 0 0 0 .013-.143v-5.926a2.167 2.167 0 0 0-2.029-2.161l-.008-.009h-.077c-.019 0-.04-.005-.053-.005-.021 0-.035.005-.055.005h-.356a2.563 2.563 0 0 1-1.428-.436 2.561 2.561 0 0 1-1.127-2.12v-.416c.005-.048.014-.099.014-.149V7.474c0-1.15-.897-2.077-2.018-2.162l-.013-.014h-.539a2.56 2.56 0 0 1-2.558-2.557v-.642l-.007-.006a2.165 2.165 0 0 0-1.941-2.08C33.173.008 33.103 0 33.028 0h-15.5c-.067 0-.128.008-.19.013h-.006a.83.83 0 0 0-.218.035 2.149 2.149 0 0 0-1.744 2.045l-.007.006v.643a2.56 2.56 0 0 1-2.557 2.557h-.541l-.006.007a2.165 2.165 0 0 0-2.024 2.168v5.921c0 .051.008.102.015.149v.416a2.562 2.562 0 0 1-2.557 2.556h-.358c-.021 0-.035-.005-.054-.005-.021 0-.035.005-.056.005h-.074l-.005.009a2.17 2.17 0 0 0-2.032 2.161v5.926c0 .046.006.097.013.143v.426c0 .883-.451 1.66-1.127 2.117-.41.276-.902.439-1.43.439h-.293a.462.462 0 0 0-.218 0h-.035A2.167 2.167 0 0 0 0 29.897v17.171c0 .153.013.303.042.439a2.176 2.176 0 0 0 2.127 1.735H48.26c.02 0 .042-.007.063-.007.027 0 .047.007.066.007a2.17 2.17 0 0 0 2.167-2.175v-17.17a2.166 2.166 0 0 0-2.021-2.161z"/></svg>