<svg xmlns="http://www.w3.org/2000/svg" width="50.773" height="49.402" viewBox="0 0 50.773 49.402"><path fill="#FFF" d="M48.81 10.7l-.007-.014h-.546c-.62 0-1.186-.222-1.629-.585a2.562 2.562 0 0 1-.937-1.98v-.654h-.007a2.178 2.178 0 0 0-.64-1.481 2.156 2.156 0 0 0-1.407-.625v-.008h-.054c-.033-.007-.061-.013-.088-.013a.382.382 0 0 0-.087.013h-.317a2.576 2.576 0 0 1-2.572-2.572v-.647l-.007-.007A2.185 2.185 0 0 0 38.333 0c-.074 0-.142.021-.216.027H12.746C12.672.021 12.605 0 12.531 0a2.188 2.188 0 0 0-2.182 2.127l-.013.007v.647c0 .883-.451 1.67-1.131 2.135a2.569 2.569 0 0 1-1.434.437h-.318c-.033-.007-.06-.013-.087-.013a.319.319 0 0 0-.087.013h-.055l-.005.007a2.184 2.184 0 0 0-1.409.626 2.204 2.204 0 0 0-.639 1.481v.021c0 .014-.007.033-.007.046 0 .02.007.04.007.06v.526a2.569 2.569 0 0 1-2.566 2.565H2.06l-.013.015A2.174 2.174 0 0 0 0 12.867v23.742c0 .12.02.235.041.35a2.166 2.166 0 0 0 2.006 1.826l.013.012h.545a2.57 2.57 0 0 1 2.566 2.573v.524c0 .014-.007.035-.007.054 0 .021.007.034.007.055v.014c.02.578.262 1.104.639 1.481.371.37.862.598 1.408.632l.006.008h.054c.026 0 .053.007.087.007.027 0 .054-.007.087-.007h.317c.531 0 1.023.16 1.434.437a2.58 2.58 0 0 1 1.131 2.128v.646l.013.007a2.19 2.19 0 0 0 2.182 2.128c.074 0 .142-.014.215-.021h25.372c.074.007.142.021.216.021 1.185 0 2.147-.95 2.181-2.128l.007-.007v-.646a2.569 2.569 0 0 1 2.572-2.564h.317c.027 0 .061.007.087.007.027 0 .055-.007.088-.007h.054v-.009a2.14 2.14 0 0 0 1.407-.632 2.18 2.18 0 0 0 .64-1.481h.007v-.647c0-.802.363-1.515.937-1.987a2.563 2.563 0 0 1 1.629-.586h.546l.007-.012a2.18 2.18 0 0 0 2.013-1.826c.021-.114.033-.229.033-.35V12.867A2.17 2.17 0 0 0 48.81 10.7z"/></svg>