<svg xmlns="http://www.w3.org/2000/svg" width="113.515" height="73.015" viewBox="0 0 113.515 73.015"><path fill="#FFF" d="M110.874 13.82l-.017-.018h-.704a3.292 3.292 0 0 1-2.342-.969 3.371 3.371 0 0 1-.97-2.359v-.826h-.016a2.714 2.714 0 0 0-.829-1.92 2.709 2.709 0 0 0-1.812-.81V6.9h-.07c-.037 0-.071-.017-.106-.017-.054 0-.089.017-.124.017h-.405a3.335 3.335 0 0 1-3.325-3.326v-.845A2.824 2.824 0 0 0 97.334 0c-.103 0-.192.02-.283.02H70.398V0H32.917v.02H16.459c-.106 0-.192-.02-.282-.02-1.53 0-2.781 1.216-2.815 2.729l-.017.019v.826c0 .917-.371 1.742-.97 2.358a3.3 3.3 0 0 1-2.342.968H9.61c-.034 0-.069-.017-.103-.017-.038.001-.072.017-.107.017h-.072l-.017.019a2.736 2.736 0 0 0-1.812.81 2.794 2.794 0 0 0-.828 1.92v.826a3.335 3.335 0 0 1-3.326 3.328h-.687l-.017.017A2.801 2.801 0 0 0 0 16.618v39.761c0 .158.017.299.035.457a2.825 2.825 0 0 0 2.606 2.357l.017.021h.687c.685 0 1.321.209 1.864.561.88.6 1.462 1.619 1.462 2.764v.828c.017.758.336 1.428.828 1.918a2.742 2.742 0 0 0 1.812.812l.017.018h.705a3.305 3.305 0 0 1 3.312 3.309v.844h.017a2.823 2.823 0 0 0 2.815 2.748c.09 0 .176-.018.282-.037h80.592c.091.02.18.037.283.037 1.533 0 2.765-1.234 2.819-2.748v-.844c0-1.145.583-2.148 1.462-2.746a3.41 3.41 0 0 1 1.863-.562h.705v-.018a2.715 2.715 0 0 0 1.812-.812 2.7 2.7 0 0 0 .829-1.918h.016v-.828a3.32 3.32 0 0 1 3.312-3.324h.704l.017-.021a2.793 2.793 0 0 0 2.587-2.357c.037-.158.054-.299.054-.457V16.619a2.813 2.813 0 0 0-2.64-2.799z"/></svg>