<svg xmlns="http://www.w3.org/2000/svg" width="50.773" height="49.402" viewBox="0 0 50.773 49.402"><path fill="#FFF" d="M2.034 5.313l-.013.02A2.166 2.166 0 0 0 0 7.488v34.379c0 1.146.896 2.08 2.021 2.162l.013.014h.545c.525 0 1.017.161 1.427.438a2.576 2.576 0 0 1 1.131 2.127v.642l.007.006a2.176 2.176 0 0 0 2.168 2.102h36.201a2.176 2.176 0 0 0 2.168-2.102l.007-.006v-.642a2.57 2.57 0 0 1 1.125-2.127 2.56 2.56 0 0 1 1.434-.438h.546l.007-.014a2.177 2.177 0 0 0 2.027-2.162V7.488c0-1.145-.896-2.08-2.027-2.155l-.007-.021h-.546a2.554 2.554 0 0 1-2.559-2.559v-.644l-.007-.006A2.173 2.173 0 0 0 43.515 0H7.313a2.176 2.176 0 0 0-2.168 2.102l-.007.006v.645a2.562 2.562 0 0 1-2.559 2.56"/></svg>